PathFileType	4	(X/Y/Z)	C:\Users\Basilio\Documents\Thesis Gigler\squatting_fais\c3dfiles\075\SLS_front_pre3\markers_experimental.trc
DataRate	CameraRate	NumFrames	NumMarkers	Units	OrigDataRate	OrigDataStartFrame	OrigNumFrames
200.000000	200.000000	4	61	mm	200.000000	166	1331
Frame#	Time	FHD			LBHD			C7			T10			CLAV			LSHO			LUUPA			LMUPA			LDUPA			LLEP			LMEP			LRAD			LUL			LRFIN			RSHO			RUPA1			RMUPA			RDUPA			RLEP			RMEP			RRAD			RUL			RUFIN			RASI			USACR			LSACR			RSACR			LTHI1			LTHI2			LTHI3			LTHI4			LLFC			LMFC			LTIB1			LTIB2			LTIB3			LTIB4			LLMAL			LMMAL			LHEE			LMT1			LMT2			LMT5			RTHI			RTHI2			RTHI3			RTHI4			RLFC			RMFC			RTIB1			RTIB2			RTIB3			RTIB4			RLMAL			RMMAL			RHEE			RMT1			RMT2			RMT5			LASI			RBHD			
		X1	Y1	Z1	X2	Y2	Z2	X3	Y3	Z3	X4	Y4	Z4	X5	Y5	Z5	X6	Y6	Z6	X7	Y7	Z7	X8	Y8	Z8	X9	Y9	Z9	X10	Y10	Z10	X11	Y11	Z11	X12	Y12	Z12	X13	Y13	Z13	X14	Y14	Z14	X15	Y15	Z15	X16	Y16	Z16	X17	Y17	Z17	X18	Y18	Z18	X19	Y19	Z19	X20	Y20	Z20	X21	Y21	Z21	X22	Y22	Z22	X23	Y23	Z23	X24	Y24	Z24	X25	Y25	Z25	X26	Y26	Z26	X27	Y27	Z27	X28	Y28	Z28	X29	Y29	Z29	X30	Y30	Z30	X31	Y31	Z31	X32	Y32	Z32	X33	Y33	Z33	X34	Y34	Z34	X35	Y35	Z35	X36	Y36	Z36	X37	Y37	Z37	X38	Y38	Z38	X39	Y39	Z39	X40	Y40	Z40	X41	Y41	Z41	X42	Y42	Z42	X43	Y43	Z43	X44	Y44	Z44	X45	Y45	Z45	X46	Y46	Z46	X47	Y47	Z47	X48	Y48	Z48	X49	Y49	Z49	X50	Y50	Z50	X51	Y51	Z51	X52	Y52	Z52	X53	Y53	Z53	X54	Y54	Z54	X55	Y55	Z55	X56	Y56	Z56	X57	Y57	Z57	X58	Y58	Z58	X59	Y59	Z59	X60	Y60	Z60	X61	Y61	Z61	

167	0.8300000000000001	-257.1784057617188	1724.192993164063	-891.7099609375002	-388.9527587890626	1590.461303710938	-960.4956054687502	-419.2071838378907	1473.8623046875	-904.8545532226565	-414.870819091797	1151.117797851563	-899.7492675781252	-274.2369689941407	1421.7197265625	-887.691833496094	-292.1379394531251	1451.456909179688	-1042.80712890625	-186.8729553222657	1288.064208984375	-1149.080932617188	-147.2370910644532	1293.801391601563	-1119.8623046875	-131.4973907470703	1246.861572265625	-1154.616455078125	-61.7136573791504	1196.2236328125	-1143.706787109375	-120.6686019897461	1138.01123046875	-1107.540405273438	nan	nan	nan	104.9158706665039	1110.88330078125	-971.4882812500002	96.50134277343753	1131.529296875	-869.6443481445315	-321.3730163574219	1450.806396484375	-737.1373901367189	-247.0023651123047	1276.02783203125	-616.9577026367189	-201.1775054931641	1276.211303710938	-634.6297607421876	-199.9775848388672	1225.6259765625	-601.0241088867189	-144.7075653076172	1179.757202148438	-597.3031005859376	-176.8797760009766	1117.741577148438	-640.2536621093751	35.96117782592774	1149.879638671875	-806.590270996094	63.18215942382814	1124.69580078125	-739.2563476562501	118.9878921508789	1149.759887695313	-838.2630004882815	-246.5847473144532	997.360290527344	-759.6954345703126	-401.8154296875001	1054.445922851563	-898.310241699219	-404.3768920898439	1021.219360351563	-924.1414794921877	-407.6140136718751	1024.628540039063	-866.8535156250002	-292.2392272949219	741.3167114257814	-1087.85546875	-265.8396301269532	660.9722900390626	-1087.489990234375	-220.0602722167969	663.9854736328126	-1068.473510742188	-295.8373718261719	609.6313476562501	-1078.552001953125	-309.5422058105469	500.7099609375001	-1072.305786132813	-270.1079406738282	479.8806762695314	-948.497009277344	-254.6760406494141	378.4259338378907	-1046.930908203125	-313.9532165527344	342.6248779296876	-1099.593139648438	-273.4719848632813	334.4593811035157	-1080.237915039063	-275.9351501464844	252.3097686767579	-1057.205200195313	-349.8800048828126	113.0454788208008	-1085.160278320313	-323.0971069335938	120.9036331176758	-1004.1484375	-406.2793884277345	80.08808898925783	-1049.397705078125	-199.7202606201172	51.26965713500978	-1015.951049804688	-194.6927795410157	54.60645675659181	-1064.53662109375	-231.7193145751954	41.35427856445313	-1118.730712890625	-315.5123291015626	793.810485839844	-696.6887207031251	-278.2195434570313	740.4086303710939	-697.3884277343751	-246.4271545410157	745.8048095703126	-706.2775268554689	-306.9673767089844	659.4960327148439	-707.8405761718751	-325.5727539062501	506.1435852050782	-738.1149902343751	-277.3422851562501	495.9027099609376	-858.2256469726565	-281.6912536621094	355.3883361816407	-797.8200683593752	-342.6295471191407	282.7434082031251	-743.5227050781251	-304.0010375976563	274.5700378417969	-772.113464355469	-314.7922058105469	229.8995361328126	-809.133972167969	-394.7611083984376	115.7798309326172	-778.1239013671877	-359.5330505371094	137.294418334961	-856.445251464844	-446.1766967773439	95.12831115722658	-837.4859619140627	-240.9808197021485	57.84107208251955	-823.8787231445315	-247.4226684570313	54.74086761474611	-782.2362060546877	-290.1934814453126	35.13374328613282	-734.4894409179689	-239.3406829833985	981.9353637695315	-1015.550903320313	nan	nan	nan	
168	0.835	-257.8357849121094	1724.194091796875	-891.7925415039065	-389.5526733398439	1590.490356445313	-960.390808105469	-419.7915039062501	1473.746459960938	-904.6595458984377	-415.2735595703126	1151.051025390625	-899.4976196289065	-274.8491821289063	1421.781005859375	-887.5852050781252	-292.7793273925782	1451.543212890625	-1042.419189453125	-186.1414337158203	1289.27099609375	-1148.4453125	-146.714584350586	1295.62646484375	-1119.057861328125	-130.3715515136719	1248.9580078125	-1153.855346679688	-60.21968460083009	1198.82568359375	-1142.8583984375	-118.360710144043	1140.1435546875	-1106.899291992188	nan	nan	nan	107.3843688964844	1114.219604492188	-970.9895019531252	98.0846862792969	1134.776000976563	-869.1369628906252	-321.9039001464844	1450.889282226563	-737.1189575195314	-246.2082519531251	1276.947265625	-616.9128417968751	-200.4420928955079	1277.724365234375	-634.6182861328126	-198.674545288086	1227.031982421875	-601.0352783203126	-142.7929992675782	1181.80810546875	-597.2594604492189	-174.5043487548828	1119.502319335938	-640.2606811523439	38.55374145507813	1152.850830078125	-806.3417968750002	65.72369384765626	1128.00341796875	-738.9006347656251	121.2035751342774	1153.474975585938	-837.8819580078127	-246.9923706054688	997.3276977539065	-759.4770507812501	-402.3082275390626	1054.4833984375	-898.0229492187502	-404.7850036621095	1021.225952148438	-923.8359985351565	-408.0045776367189	1024.55615234375	-866.556091308594	-292.5692749023438	741.4243164062501	-1087.621826171875	-266.1876220703126	661.0125122070314	-1087.259643554688	-220.2844238281251	664.0316772460939	-1068.288452148438	-296.0746459960938	609.5946044921876	-1078.318115234375	-309.7345581054688	500.7358703613282	-1072.181762695313	-270.2312011718751	479.8918457031251	-948.3457641601565	-254.7732543945313	378.4430847167969	-1046.8076171875	-314.0145568847657	342.6257324218751	-1099.5185546875	-273.5058593750001	334.4653930664063	-1080.165649414063	-276.7606201171876	252.3518066406251	-1057.811401367188	-349.8482971191407	113.0280914306641	-1085.167358398438	-323.1159362792969	120.8795547485352	-1004.144836425781	-406.2492980957032	80.02745819091798	-1049.409057617188	-199.7435607910157	51.25234985351564	-1015.972961425781	-194.6894226074219	54.58882141113283	-1064.534912109375	-231.7115478515626	41.36422348022462	-1118.732177734375	-315.8036193847657	793.7385864257815	-696.4589233398439	-278.4526672363282	740.2833251953126	-697.1863403320314	-246.6510620117188	745.7760620117189	-706.0102539062501	-307.1211242675782	659.3988647460939	-707.6405639648439	-325.6284179687501	506.0291442871095	-737.9097900390626	-277.2226867675782	495.8111267089845	-857.965270996094	-281.6429138183594	355.3255310058594	-797.6057739257815	-342.6155700683594	282.6602172851563	-743.4558105468751	-304.0841064453126	274.4938659667969	-772.0415039062502	-314.8313293457032	229.8728942871094	-809.061950683594	-394.7439270019532	115.7914047241211	-778.0838623046877	-359.5386352539063	137.2084197998047	-856.437683105469	-446.2224121093751	95.13535308837892	-837.4848632812502	-240.9846496582032	57.84587860107423	-823.835388183594	-247.4637298583985	54.79146575927736	-782.1370239257815	-290.2109375000001	35.12526321411134	-734.4819335937501	-239.7134857177735	981.8081054687502	-1015.361389160156	nan	nan	nan	
169	0.84	-258.5034484863282	1724.152465820313	-891.711120605469	-390.2206115722657	1590.439819335938	-960.2019653320315	-420.3363037109376	1473.743896484375	-904.4666748046877	-415.7355346679689	1150.9853515625	-899.2793579101565	-275.2699584960938	1421.704956054688	-887.2148437500002	-293.4848937988282	1451.5732421875	-1042.021728515625	-185.2087707519532	1290.671264648438	-1147.906127929688	-146.549545288086	1297.402709960938	-1118.470336914063	-129.0010070800782	1250.650756835938	-1152.885009765625	-58.19748687744142	1201.415649414063	-1141.984985351563	-115.7592544555664	1142.107421875	-1106.118774414063	nan	nan	nan	110.3688430786133	1117.609985351563	-970.5059204101565	100.5967178344727	1137.877319335938	-868.5725097656252	-322.3328857421876	1450.903686523438	-737.0659179687501	-245.2337493896485	1277.692138671875	-616.8121337890626	-199.6109771728516	1278.902587890625	-634.6301269531251	-197.3201599121094	1228.3876953125	-601.0031127929689	-141.0149078369141	1183.744995117188	-597.3026123046876	-172.097885131836	1121.258544921875	-640.1793823242189	40.82769012451173	1156.013793945313	-806.2987060546877	68.26109313964845	1131.431762695313	-738.6467895507814	123.7129745483399	1157.53857421875	-837.4641113281252	-247.4429473876954	997.3631591796877	-759.2186279296876	-402.7366943359376	1054.350708007813	-897.7769775390627	-405.2309570312501	1021.314819335938	-923.5852050781252	-408.4215087890626	1024.50146484375	-866.2493896484377	-292.2971496582032	741.2070312500001	-1087.37890625	-266.4445190429688	661.0611572265626	-1087.138427734375	-220.7148590087891	664.1105346679689	-1068.141723632813	-296.2979736328126	609.5465087890626	-1078.252197265625	-309.7777404785157	500.703094482422	-1072.022705078125	-270.3460083007813	479.8282470703126	-948.220642089844	-254.8204956054688	378.4149780273438	-1046.6884765625	-314.0875549316407	342.6043395996094	-1099.419799804688	-273.6041870117188	334.5371093750001	-1080.098999023438	-276.0614318847657	252.3613433837891	-1057.126586914063	-349.9262695312501	113.0244522094727	-1085.173095703125	-323.1186218261719	120.8603134155274	-1004.119934082031	-406.2925109863282	80.07791900634767	-1049.441528320313	-199.7735137939454	51.27469635009767	-1015.933166503906	-194.650131225586	54.64779281616212	-1064.514404296875	-231.665756225586	41.37778091430665	-1118.754516601563	-316.0211791992188	793.738952636719	-696.1831665039064	-278.5954284667969	740.3009643554689	-696.9647216796876	-246.8504028320313	745.8153686523439	-705.8671875000001	-307.2325134277344	659.4112548828126	-707.3809204101564	-325.6371154785157	505.9687805175782	-737.7127075195314	-277.3307189941407	495.7762451171876	-857.818786621094	-281.6936035156251	355.3002319335938	-797.499694824219	-342.6089477539063	282.5571899414063	-743.3485717773439	-303.5823974609376	274.2545776367188	-771.5904541015627	-314.6759948730469	229.9363403320313	-808.9396972656252	-394.7320556640626	115.7724151611328	-778.0633544921877	-359.4803161621094	137.2710418701172	-856.411804199219	-446.208953857422	95.14241790771486	-837.454284667969	-240.9761047363282	57.83297729492189	-823.8625488281252	-247.4604797363282	54.7851905822754	-782.1342773437502	-290.1897583007813	35.11905670166016	-734.4896240234376	-239.1035461425782	981.760192871094	-1015.321960449219	nan	nan	nan	
170	0.845	-259.5884094238282	1724.402465820313	-892.069274902344	-390.725067138672	1590.474365234375	-959.8928222656252	-420.8148193359376	1473.626708984375	-904.2482910156252	-416.2008361816407	1150.930541992188	-898.9515380859377	-276.3566589355469	1421.891235351563	-887.3417968750002	-294.0963439941407	1451.625610351563	-1041.654296875	-183.9657897949219	1291.892700195313	-1147.203247070313	-145.416000366211	1299.016723632813	-1117.369262695313	-128.0447692871094	1252.802734375	-1152.138793945313	-56.81248855590822	1204.057739257813	-1140.9775390625	-113.0858154296875	1144.112670898438	-1105.898681640625	nan	nan	nan	112.7949295043946	1121.1044921875	-969.9260253906252	103.1143646240235	1140.883422851563	-868.149597167969	-322.7345275878907	1450.973999023438	-737.0241088867189	-244.2709045410157	1278.63720703125	-616.7302856445314	-198.6935119628907	1280.384155273438	-634.5476074218751	-196.0215301513672	1229.809204101563	-600.9265136718751	-139.2034912109375	1185.500366210938	-597.5476684570314	-169.6545715332032	1122.768676757813	-640.3631591796876	42.78454971313477	1158.045166015625	-805.8310546875002	70.74451446533205	1134.856323242188	-738.3500976562501	126.1390075683594	1161.066162109375	-837.1333007812502	-247.8351440429688	997.4035644531252	-759.0161743164064	-403.2404174804689	1054.278198242188	-897.5252075195315	-405.6762084960939	1021.26025390625	-923.3839111328127	-408.8549804687501	1024.364135742188	-866.011657714844	-293.2313842773438	741.3900146484376	-1087.299682617188	-266.7527465820313	661.1641235351564	-1087.007934570313	-220.9312438964844	664.1351318359376	-1068.00244140625	-296.5240173339844	609.5394287109376	-1078.065673828125	-310.0757141113282	500.7248535156251	-1071.853271484375	-270.4427490234376	479.8275451660157	-948.0451660156252	-254.9947052001954	378.4133911132813	-1046.61767578125	-314.1956176757813	342.5576477050782	-1099.29052734375	-273.6109313964844	334.5078125000001	-1080.002563476563	-276.3034362792969	252.3292388916016	-1057.259887695313	-349.9599304199219	113.0141372680664	-1085.162841796875	-323.1256103515626	120.8467559814453	-1004.115234375	-406.2985839843751	80.01177978515626	-1049.423950195313	-199.7360382080079	51.27109527587892	-1015.950378417969	-194.7105560302735	54.64334869384767	-1064.55517578125	-231.6857604980469	41.46863555908204	-1118.777099609375	-316.2897338867188	793.6461181640627	-695.9802856445314	-278.8043212890626	740.2519531250001	-696.7195434570314	-247.0799865722657	745.8001098632814	-705.6348876953126	-307.3850708007813	659.3430786132814	-707.1816406250001	-325.6412658691407	505.8777465820314	-737.4948120117189	-277.0802612304688	495.7498168945314	-857.5791015625002	-281.6037902832032	355.2554321289063	-797.3164062500002	-342.6416015625001	282.4545593261719	-743.2738647460939	-304.0756835937501	274.4830627441407	-771.8680419921877	-314.7782592773438	229.8450317382813	-808.934509277344	-394.7840270996095	115.7208786010742	-778.0356445312502	-359.5076904296876	137.2469177246094	-856.3882446289065	-446.219451904297	95.10263061523439	-837.436218261719	-240.9917755126954	57.86877441406251	-823.819274902344	-247.4641723632813	54.79150772094728	-782.130065917969	-290.1670532226563	35.12165451049805	-734.4745483398439	-239.5051574707032	981.9158935546877	-1015.173706054688	nan	nan	nan	
